<svg width="62" height="16" viewBox="0 0 62 16" fill="none" xmlns="http://www.w3.org/2000/svg">
<path d="M61.7071 8.70711C62.0976 8.31658 62.0976 7.68342 61.7071 7.29289L55.3431 0.928932C54.9526 0.538408 54.3195 0.538408 53.9289 0.928932C53.5384 1.31946 53.5384 1.95262 53.9289 2.34315L59.5858 8L53.9289 13.6569C53.5384 14.0474 53.5384 14.6805 53.9289 15.0711C54.3195 15.4616 54.9526 15.4616 55.3431 15.0711L61.7071 8.70711ZM0 9L5.08333 9L5.08333 7L0 7V9ZM15.25 9L25.4167 9L25.4167 7L15.25 7L15.25 9ZM35.5833 9L45.75 9L45.75 7L35.5833 7L35.5833 9ZM55.9167 9L61 9L61 7L55.9167 7L55.9167 9ZM61.7071 8.70711C62.0976 8.31658 62.0976 7.68342 61.7071 7.29289L55.3431 0.928932C54.9526 0.538408 54.3195 0.538408 53.9289 0.928932C53.5384 1.31946 53.5384 1.95262 53.9289 2.34315L59.5858 8L53.9289 13.6569C53.5384 14.0474 53.5384 14.6805 53.9289 15.0711C54.3195 15.4616 54.9526 15.4616 55.3431 15.0711L61.7071 8.70711ZM0 9L5.08333 9L5.08333 7L0 7V9ZM15.25 9L25.4167 9L25.4167 7L15.25 7L15.25 9ZM35.5833 9L45.75 9L45.75 7L35.5833 7L35.5833 9ZM55.9167 9L61 9L61 7L55.9167 7L55.9167 9Z" fill="#CFCEC4"/>
</svg>
