<svg width="115" height="16" viewBox="0 0 115 16" fill="none" xmlns="http://www.w3.org/2000/svg">
<path d="M114.707 8.70711C115.098 8.31658 115.098 7.68342 114.707 7.29289L108.343 0.928932C107.953 0.538408 107.319 0.538408 106.929 0.928932C106.538 1.31946 106.538 1.95262 106.929 2.34315L112.586 8L106.929 13.6569C106.538 14.0474 106.538 14.6805 106.929 15.0711C107.319 15.4616 107.953 15.4616 108.343 15.0711L114.707 8.70711ZM0 9L4.75 9L4.75 7L0 7L0 9ZM14.25 9L23.75 9V7L14.25 7L14.25 9ZM33.25 9L42.75 9V7L33.25 7V9ZM52.25 9L61.75 9V7L52.25 7V9ZM71.25 9L80.75 9L80.75 7L71.25 7L71.25 9ZM90.25 9L99.75 9L99.75 7L90.25 7L90.25 9ZM109.25 9L114 9L114 7L109.25 7L109.25 9ZM114.707 8.70711C115.098 8.31658 115.098 7.68342 114.707 7.29289L108.343 0.928932C107.953 0.538408 107.319 0.538408 106.929 0.928932C106.538 1.31946 106.538 1.95262 106.929 2.34315L112.586 8L106.929 13.6569C106.538 14.0474 106.538 14.6805 106.929 15.0711C107.319 15.4616 107.953 15.4616 108.343 15.0711L114.707 8.70711ZM0 9L4.75 9L4.75 7L0 7L0 9ZM14.25 9L23.75 9V7L14.25 7L14.25 9ZM33.25 9L42.75 9V7L33.25 7V9ZM52.25 9L61.75 9V7L52.25 7V9ZM71.25 9L80.75 9L80.75 7L71.25 7L71.25 9ZM90.25 9L99.75 9L99.75 7L90.25 7L90.25 9ZM109.25 9L114 9L114 7L109.25 7L109.25 9Z" fill="#CFCEC4"/>
</svg>
