<svg width="16" height="16" viewBox="0 0 16 16" fill="none" xmlns="http://www.w3.org/2000/svg">
<path d="M2 14H3.4L11.2 6.225L9.775 4.8L2 12.6V14ZM0 16V11.75L11.2 0.575C11.3833 0.391667 11.5958 0.25 11.8375 0.15C12.0792 0.05 12.3333 0 12.6 0C12.8667 0 13.125 0.05 13.375 0.15C13.625 0.25 13.85 0.4 14.05 0.6L15.425 2C15.625 2.18333 15.7708 2.4 15.8625 2.65C15.9542 2.9 16 3.15833 16 3.425C16 3.675 15.9542 3.92083 15.8625 4.1625C15.7708 4.40417 15.625 4.625 15.425 4.825L4.25 16H0Z" fill="#bdbcb7"/>
</svg>
