<svg width="24" height="24" viewBox="0 0 24 24" fill="none" xmlns="http://www.w3.org/2000/svg">
<path d="M21.3233 23.4267L21.5 23.6035L21.6768 23.4267L23.4268 21.6767L23.6036 21.5L23.4268 21.3232L15.7075 13.6039C16.1614 12.9985 16.5246 12.3144 16.7978 11.5532C17.0998 10.7119 17.25 9.81863 17.25 8.87497C17.25 6.53938 16.4383 4.55345 14.8174 2.93257C13.1965 1.31168 11.2106 0.499969 8.87503 0.499969C6.53944 0.499969 4.55351 1.31168 2.93263 2.93257C1.31174 4.55345 0.500031 6.53938 0.500031 8.87497C0.500031 11.2106 1.31174 13.1965 2.93263 14.8174C4.55351 16.4383 6.53944 17.25 8.87503 17.25C9.8187 17.25 10.712 17.0998 11.5532 16.7978C12.3144 16.5245 12.9985 16.1614 13.604 15.7075L21.3233 23.4267ZM12.6826 12.6826C11.6363 13.7289 10.372 14.25 8.87503 14.25C7.37808 14.25 6.11377 13.7289 5.06743 12.6826C4.0211 11.6362 3.50003 10.3719 3.50003 8.87497C3.50003 7.37802 4.0211 6.1137 5.06743 5.06737C6.11377 4.02104 7.37808 3.49997 8.87503 3.49997C10.372 3.49997 11.6363 4.02104 12.6826 5.06737C13.729 6.1137 14.25 7.37802 14.25 8.87497C14.25 10.3719 13.729 11.6362 12.6826 12.6826Z" fill="#E07A5F" stroke="#E07A5F" stroke-width="0.5"/>
</svg>
