<svg width="51" height="63" viewBox="0 0 51 63" fill="none" xmlns="http://www.w3.org/2000/svg">
<path d="M25.1609 63C12.8873 63 0 53.3391 0 37.495C0 21.6509 14.5216 11.2115 14.5216 11.2115C14.5216 11.2115 12.8905 13.2865 12.8905 19.0773C12.8905 28.7285 27.425 36.4495 27.425 41.9185C27.425 47.3875 25.1641 63 25.1641 63H25.1609Z" fill="#81B29A"/>
<path d="M25.1609 63C42.6023 63 51 47.6578 51 37.0929C51 13.6082 23.0679 0 23.0679 0C23.0679 0 27.0988 2.99188 27.0988 11.9997C27.0988 26.1548 8.85637 28.4068 8.85637 45.5731C8.85637 57.3605 19.0241 63 25.1609 63Z" fill="#E07A5F"/>
<path d="M25.458 63C35.4998 63 42.5118 55.5074 42.5118 46.7827C42.5118 30.9805 33.6232 27.4417 33.6232 16.983C33.6232 14.2517 35.0766 11.9965 35.0766 11.9965C35.0766 11.9965 29.4469 15.4806 29.4469 24.5174C29.4469 34.5192 33.8816 37.0929 33.8816 47.3875C33.8816 63.4729 17.5028 61.7164 17.5028 61.7164C17.5028 61.7164 22.254 63 25.4548 63H25.458Z" fill="#F2CC8F"/>
</svg>
